<svg width="1920" height="1080" viewBox="0 0 1920 1080" fill="none" xmlns="http://www.w3.org/2000/svg">
    <g clip-path="url(#clip0_1733_3099)">
        <path d="M895.609 -1.82422L878 1137.09" stroke="white" stroke-opacity="0.15" stroke-width="2"/>
        <path d="M770.164 1.26172L734.418 1141.95" stroke="white" stroke-opacity="0.15" stroke-width="2"/>
        <path d="M643.617 -0.839844L587.897 1183.94" stroke="white" stroke-opacity="0.15" stroke-width="2"/>
        <path d="M518.383 -0.828125L447.999 1120.82" stroke="white" stroke-opacity="0.15" stroke-width="2"/>
        <path d="M391.938 -1.875L303.997 1118.24" stroke="white" stroke-opacity="0.15" stroke-width="2"/>
        <path d="M160 1116.25L265.469 -1.97767" stroke="white" stroke-opacity="0.15" stroke-width="2"/>
        <path d="M139.953 -0.800781L16.9873 1115.21" stroke="white" stroke-opacity="0.15" stroke-width="2"/>
        <path d="M1022 -1.93359L1039.67 1136.98" stroke="white" stroke-opacity="0.15" stroke-width="2"/>
        <path d="M1148 1.22266L1183.21 1136.85" stroke="white" stroke-opacity="0.15" stroke-width="2"/>
        <path d="M1274 -0.898438L1326.81 1133.85" stroke="white" stroke-opacity="0.15" stroke-width="2"/>
        <path d="M1402 -1.96094L1472.38 1131.59" stroke="white" stroke-opacity="0.15" stroke-width="2"/>
        <path d="M1528 1.19141L1615.94 1133.18" stroke="white" stroke-opacity="0.15" stroke-width="2"/>
        <path d="M1654 1.18359L1759.47 1131.27" stroke="white" stroke-opacity="0.15" stroke-width="2"/>
        <path d="M1779.99 -1.99219L1902.96 1125.85" stroke="white" stroke-opacity="0.15" stroke-width="2"/>
    </g>
    <defs>
        <clipPath id="clip0_1733_3099">
            <rect width="1920" height="1080" fill="white"/>
        </clipPath>
    </defs>
</svg>
