<svg width="147" height="157" viewBox="0 0 147 157" fill="none" xmlns="http://www.w3.org/2000/svg">
<g clip-path="url(#clip0_626_5)">
<g filter="url(#filter0_b_626_5)">
<path d="M60 140.854L119.25 106.646C140.917 94.1366 140.917 62.8634 119.25 50.3542L60 16.1462C38.3333 3.63691 11.25 19.2735 11.25 44.292L11.25 112.708C11.25 137.727 38.3333 153.363 60 140.854Z" stroke="white" stroke-opacity="0.07" stroke-width="23"/>
</g>
<g filter="url(#filter1_b_626_5)">
<path d="M113.5 60.3135C127.5 68.3964 127.5 88.6036 113.5 96.6865L54.25 130.895C40.25 138.977 22.75 128.874 22.75 112.708L22.75 44.292C22.75 28.1262 40.25 18.0226 54.25 26.1055L113.5 60.3135Z" fill="white" fill-opacity="0.01"/>
<path d="M112.75 95.3875L53.5 129.595C40.5 137.101 24.25 127.719 24.25 112.708L24.25 44.292C24.25 29.2809 40.5 19.8989 53.5 27.4045L112.75 61.6125C125.75 69.1181 125.75 87.8819 112.75 95.3875Z" stroke="white" stroke-width="3"/>
</g>
</g>
<defs>
<filter id="filter0_b_626_5" x="-25.25" y="-24.7737" width="197.25" height="206.547" filterUnits="userSpaceOnUse" color-interpolation-filters="sRGB">
<feFlood flood-opacity="0" result="BackgroundImageFix"/>
<feGaussianBlur in="BackgroundImageFix" stdDeviation="12.5"/>
<feComposite in2="SourceAlpha" operator="in" result="effect1_backgroundBlur_626_5"/>
<feBlend mode="normal" in="SourceGraphic" in2="effect1_backgroundBlur_626_5" result="shape"/>
</filter>
<filter id="filter1_b_626_5" x="15.75" y="16.2607" width="115.25" height="124.479" filterUnits="userSpaceOnUse" color-interpolation-filters="sRGB">
<feFlood flood-opacity="0" result="BackgroundImageFix"/>
<feGaussianBlur in="BackgroundImageFix" stdDeviation="3.5"/>
<feComposite in2="SourceAlpha" operator="in" result="effect1_backgroundBlur_626_5"/>
<feBlend mode="normal" in="SourceGraphic" in2="effect1_backgroundBlur_626_5" result="shape"/>
</filter>
<clipPath id="clip0_626_5">
<rect width="147" height="157" fill="white"/>
</clipPath>
</defs>
</svg>
